<svg enable-background="new 0 0 512 512" height="512" viewBox="0 0 466.972 466.972" width="512" xmlns="http://www.w3.org/2000/svg"><g fill="#235cc9" xmlns="http://www.w3.org/2000/svg"><path d="m398.586 68.387c-44.101-44.1-102.734-68.387-165.1-68.387s-121 24.287-165.099 68.387-68.387 102.732-68.387 165.098 24.287 121 68.386 165.1 102.733 68.387 165.099 68.387c62.367 0 121-24.287 165.1-68.387 44.099-44.1 68.386-102.733 68.386-165.1s-24.287-120.999-68.385-165.098zm-296.967 344.345c15.574-26.958 39.298-48.75 67.455-61.91 14.638 11.26 31.414 18.804 49.415 21.521v12.146c0 3.037 2.462 5.5 5.5 5.5s5.5-2.463 5.5-5.5v-11.107c1.327.053 2.657.089 3.995.089 1.341 0 2.675-.036 4.005-.089v11.108c0 3.037 2.463 5.5 5.5 5.5s5.5-2.463 5.5-5.5v-12.148c17.966-2.713 34.713-10.235 49.33-21.46 28.165 13.183 51.902 34.964 67.488 61.883-37.977 28.048-83.733 43.207-131.822 43.207-48.107 0-93.88-15.171-131.866-43.24zm11.691-178.434c.416 11.914 2.022 23.46 4.682 34.471-3.149-.375-6.157-1.564-8.746-3.537-3.822-2.912-6.281-7.139-6.924-11.901-.644-4.762.606-9.489 3.519-13.312 1.967-2.581 4.543-4.522 7.469-5.721zm240.365-.285c3.226 1.161 6.058 3.215 8.185 6.006 2.912 3.822 4.162 8.55 3.52 13.312-.644 4.763-3.103 8.989-6.925 11.901-2.793 2.128-6.073 3.358-9.491 3.621 2.692-11.124 4.31-22.795 4.711-34.84zm18.768 31.789c2.402 1.677 3.931 4.459 3.931 7.568 0 5.093-4.144 9.236-9.236 9.236-3.589 0-6.683-2.022-8.214-5.008 2.181-.934 4.262-2.142 6.198-3.617 2.986-2.275 5.451-5.051 7.321-8.179zm-60.464-96.336c-26.696-3.99-53.583-5.984-80.481-5.984-25.686 0-51.382 1.82-76.9 5.46l-62.068 8.854.254-74.665c.003-1.03.408-1.997 1.139-2.724.728-.723 1.692-1.12 2.725-1.12h.014l.502.001c28.418.091 55.239-14.753 69.968-38.756 14.371-23.42 39.29-37.377 66.706-37.377.09 0 .185.001.276.001 27.523.094 52.467 14.236 66.726 37.831 14.563 24.102 41.271 39.134 69.702 39.231 2.127.007 3.851 1.743 3.844 3.87l-.254 74.667zm-155.827 10.366c51.185-7.302 103.065-7.129 154.203.513l25.602 3.827c.961 2.793 1.819 5.66 2.578 8.593l-26.558-3.97c-52.183-7.8-105.133-7.977-157.383-.526l-25.946 3.703c.781-2.935 1.662-5.801 2.647-8.594zm-29.978 23.605 29.973-4.277c15.387-2.194 30.837-3.7 46.309-4.544l-13.246 20.484c-4.209-1.74-8.817-2.707-13.648-2.707-19.762 0-35.84 16.078-35.84 35.84 0 10.246 4.328 19.494 11.244 26.032l-12.721 19.676c-8.94-19.471-14.051-41.938-14.051-65.847 0-8.6.666-16.835 1.98-24.657zm24.548 44.796c0-13.696 11.144-24.84 24.84-24.84s24.84 11.144 24.84 24.84c0 13.697-11.143 24.841-24.84 24.841s-24.84-11.143-24.84-24.841zm9.296 32.291c4.705 2.274 9.978 3.55 15.544 3.55 19.762 0 35.84-16.078 35.84-35.841 0-10.99-4.977-20.836-12.79-27.416l17.308-26.766c31.54-.922 63.127.943 94.431 5.622l30.583 4.572c1.226 7.583 1.85 15.546 1.85 23.848 0 67.837-41.101 124.085-94.294 133.105v-11.709c0-3.037-2.463-5.5-5.5-5.5s-5.5 2.463-5.5 5.5v12.882c-1.33.059-2.664.1-4.005.1-1.338 0-2.668-.04-3.995-.099v-12.882c0-3.037-2.462-5.5-5.5-5.5s-5.5 2.463-5.5 5.5v11.71c-30.704-5.203-57.377-26.143-74.444-55.97zm230.789 110.283c-5.359 5.359-10.947 10.407-16.735 15.144-15.868-26.823-39.326-48.773-67.104-62.839 17.361-16.236 30.958-38.073 38.925-63.25.573.034 1.146.058 1.718.058.12 0 .239-.013.359-.015 2.706 8.018 10.251 13.702 19.167 13.702 11.158 0 20.236-9.078 20.236-20.236 0-7.852-4.464-14.742-11.171-18.084.025-.161.055-.32.077-.482 1.037-7.674-.978-15.292-5.671-21.451-4.227-5.547-10.175-9.305-16.92-10.755-.411-13.032-2.285-25.298-5.61-36.614l30.718 4.591c.271.041.543.061.813.061 1.306 0 2.579-.465 3.583-1.327 1.212-1.041 1.911-2.557 1.917-4.154l.275-81.028c.014-3.969-1.52-7.705-4.315-10.521-2.797-2.815-6.522-4.373-10.491-4.387-24.617-.084-47.732-13.082-60.325-33.921-16.26-26.906-44.71-43.034-76.103-43.142-.105 0-.209 0-.314 0-31.269 0-59.692 15.916-76.08 42.622-12.693 20.687-35.785 33.51-60.321 33.51-.08 0-.161 0-.241 0l-.503-.001c-.017 0-.034 0-.052 0-3.949 0-7.665 1.531-10.468 4.315-2.815 2.797-4.374 6.522-4.387 10.491l-.276 81.027c-.005 1.598.684 3.118 1.889 4.167 1.206 1.049 2.805 1.52 4.388 1.297l31.372-4.475c-3.499 11.604-5.463 24.216-5.874 37.649-6.446 1.559-12.118 5.247-16.192 10.594-4.693 6.159-6.708 13.777-5.671 21.451s5 14.484 11.159 19.178c5.102 3.888 11.204 5.938 17.511 5.938.332 0 .667-.022 1-.034 7.956 25.134 21.523 46.937 38.844 63.161-27.771 14.047-51.221 36.008-67.078 62.869-5.773-4.726-11.345-9.762-16.69-15.108-42.023-42.024-65.166-97.895-65.166-157.323s23.143-115.299 65.165-157.32c42.022-42.022 97.893-65.165 157.321-65.165s115.299 23.143 157.322 65.165c42.021 42.021 65.164 97.893 65.164 157.32s-23.143 115.3-65.165 157.322z"/><path d="m211.657 310.902c-1.955 2.324-1.655 5.794.669 7.749 4.692 3.946 12.6 6.302 21.155 6.302 8.561 0 16.472-2.355 21.164-6.302 2.325-1.955 2.624-5.425.669-7.749-1.956-2.326-5.426-2.624-7.749-.669-2.04 1.716-6.953 3.72-14.083 3.72-7.124 0-12.034-2.004-14.075-3.72-2.325-1.956-5.795-1.656-7.75.669z"/><path d="m233.486 43.354c-19.762 0-35.84 16.078-35.84 35.841 0 19.762 16.078 35.84 35.84 35.84s35.84-16.078 35.84-35.84-16.078-35.841-35.84-35.841zm24.84 35.841c0 4.836-1.394 9.35-3.794 13.171l-13.182-13.182 13.173-13.174c2.405 3.824 3.803 8.344 3.803 13.185zm-11.564-20.979-13.19 13.19-13.258-13.258c3.821-2.4 8.335-3.794 13.171-3.794 4.881 0 9.434 1.421 13.277 3.862zm-34.255 34.255c-2.441-3.844-3.862-8.396-3.862-13.276 0-4.886 1.424-9.444 3.87-13.29l13.279 13.279zm7.795 7.762 13.271-13.271 13.203 13.203c-3.846 2.447-8.404 3.871-13.29 3.871-4.842-.001-9.361-1.398-13.184-3.803z"/><path d="m193.612 308.336c.723 0 1.458-.143 2.164-.445l24.272-10.402c2.792-1.197 4.085-4.431 2.889-7.223-1.196-2.791-4.431-4.085-7.222-2.889l-24.272 10.402c-2.792 1.197-4.085 4.431-2.889 7.223.894 2.085 2.925 3.334 5.058 3.334z"/><path d="m246.922 297.488 24.272 10.402c.707.303 1.441.445 2.164.445 2.134 0 4.164-1.249 5.059-3.334 1.196-2.792-.097-6.025-2.889-7.223l-24.272-10.402c-2.794-1.196-6.024.098-7.223 2.889-1.196 2.793.097 6.026 2.889 7.223z"/><path d="m271.929 254.589c.18 0 1.138-.009 2.636-.146.509 5.509 5.139 9.823 10.78 9.823 5.982 0 10.831-4.849 10.831-10.831 0-2.099-.607-4.051-1.64-5.711 4.074-2.677 7.933-6.396 10.806-11.568 1.476-2.655.519-6.004-2.137-7.479-2.654-1.477-6.003-.52-7.479 2.137-6.947 12.504-23.651 12.773-23.819 12.774-3.028.011-5.479 2.469-5.479 5.5.001 3.038 2.464 5.501 5.501 5.501z"/></g></svg>