<svg enable-background="new 0 0 512 512" height="512" viewBox="0 0 466.971 466.971" width="512" xmlns="http://www.w3.org/2000/svg"><g fill="#00a790" xmlns="http://www.w3.org/2000/svg"><path d="m398.585 68.386c-44.099-44.099-102.733-68.386-165.099-68.386s-121 24.287-165.1 68.386c-44.099 44.1-68.386 102.734-68.386 165.1s24.287 121 68.386 165.099c44.1 44.1 102.733 68.386 165.1 68.386s121-24.287 165.1-68.386c44.099-44.1 68.386-102.733 68.386-165.099s-24.288-121-68.387-165.1zm-296.966 344.346c13.338-23.087 32.654-42.382 55.614-55.714 10.096 33.1 41.055 56.433 76.233 56.433 35.144 0 66.094-23.302 76.215-56.357 22.96 13.343 42.281 32.622 55.626 55.671-37.977 28.048-83.733 43.207-131.821 43.207-48.108-.001-93.881-15.171-131.867-43.24zm34.836-282.111c-.563-1.724-1.938-3.061-3.677-3.572l-6.225-1.832c15.42-6.93 39.016-17.66 44.276-20.767 1.69-.999 2.721-2.822 2.703-4.785s-1.08-3.768-2.788-4.736l-4.727-2.678c18.177-1.096 43.841-2.732 49.368-3.541 1.977-.289 3.641-1.627 4.348-3.496.706-1.868.345-3.973-.945-5.498l-4.79-5.661c18.042 6.689 41.456 15.261 44.911 15.988 1.802.38 3.677-.169 4.99-1.461s1.893-3.156 1.542-4.965l-1.407-7.271c13.002 11.919 28.856 26.27 31.461 27.792 1.644.961 3.665 1.003 5.348.114 1.683-.89 2.785-2.585 2.916-4.484l.618-8.987c16.449 16.183 52.239 58.446 52.239 119.765 0 4.239-.237 8.462-.66 12.635-.582-.176-1.171-.335-1.769-.475l-29.852-40.976c2.451-1.601 3.242-4.85 1.735-7.393-1.549-2.614-4.925-3.475-7.535-1.927l-1.829 1.084c-27.805 16.476-60.504 21.731-92.065 14.795l-15.247-3.35c-32.313-7.098-66.139-2.352-95.248 13.368-2.673 1.443-3.67 4.78-2.227 7.453.995 1.842 2.889 2.888 4.845 2.888.882 0 1.777-.213 2.608-.662.038-.021.077-.04.115-.061l-8.701 14.788c-.391-4.017-.612-8.059-.612-12.094 0-8.478.869-16.96 2.584-25.211.377-1.813-.185-3.695-1.493-5.006-1.309-1.31-3.19-1.875-5.005-1.5l-2.105.435c9.803-13.841 25.764-36.275 31.433-43.662 1.105-1.44 1.429-3.33.867-5.054zm217.22 103.393c7.789 2.82 12.857 10.781 11.705 19.317-.644 4.762-3.103 8.989-6.925 11.902-2.793 2.128-6.07 3.357-9.491 3.62 2.692-11.124 4.309-22.794 4.711-34.839zm4.615 45.044c3.848 0 6.979 3.13 6.979 6.979s-3.131 6.979-6.979 6.979-6.979-3.131-6.979-6.979 3.132-6.979 6.979-6.979zm-244.98-44.753c.417 11.911 2.023 23.456 4.682 34.465-3.15-.375-6.157-1.564-8.746-3.537-3.822-2.913-6.281-7.14-6.925-11.902-1.117-8.268 3.611-15.986 10.989-19.026zm2.302 51.732c0 3.848-3.131 6.979-6.979 6.979s-6.979-3.131-6.979-6.979 3.131-6.979 6.979-6.979 6.979 3.13 6.979 6.979zm8.581-57.943c0-2.268.058-4.518.151-6.731l12.443-21.147c22.404-8.047 46.762-9.694 70.248-4.534l15.246 3.35c31.447 6.909 63.925 2.675 92.394-11.875l28.079 38.635c.011.767.029 1.529.029 2.303 0 74.096-49.031 134.377-109.299 134.377-60.264-.001-109.291-60.282-109.291-134.378zm44.879 122.727c18.634 14.335 40.734 22.65 64.412 22.65 23.646 0 45.718-8.292 64.336-22.59.647.303 1.289.615 1.931.927-8.039 29.58-35.261 50.642-66.284 50.642-31.055 0-58.285-21.094-66.299-50.715.633-.307 1.266-.616 1.904-.914zm221.735 39.986c-5.359 5.359-10.947 10.407-16.735 15.144-15.868-26.823-39.326-48.773-67.103-62.839 14.455-13.518 26.3-30.918 34.46-50.897 2.527 6.875 9.122 11.802 16.862 11.802 9.913 0 17.979-8.065 17.979-17.979 0-6.194-3.148-11.666-7.929-14.9 4.32-4.424 7.097-10.093 7.94-16.333 1.366-10.116-2.691-19.732-9.924-25.923.822-6.02 1.262-12.167 1.262-18.336 0-44.203-17.514-78.729-32.205-99.908-15.908-22.933-31.701-35.349-32.365-35.866-1.604-1.249-3.766-1.512-5.623-.682-1.856.83-3.104 2.616-3.243 4.644l-.651 9.468c-8.33-7.39-21.927-19.795-34.338-31.27-1.746-1.614-4.331-1.923-6.408-.767s-3.177 3.517-2.725 5.851l2.806 14.498c-13.014-4.589-37.933-13.816-54.711-20.106-2.341-.878-4.985-.064-6.427 1.983-1.442 2.046-1.319 4.808.297 6.719l11.551 13.653c-14.966 1.139-41.487 2.73-56.786 3.598-2.436.138-4.489 1.864-5.044 4.24-.556 2.376.521 4.833 2.644 6.036l11.99 6.794c-13.49 6.431-37.446 17.177-47.918 21.825-2.108.936-3.408 3.087-3.257 5.389.151 2.301 1.724 4.264 3.936 4.915l12.961 3.813c-11.654 15.912-33.884 47.452-34.975 49.001-1.3 1.845-1.341 4.296-.104 6.184s3.498 2.826 5.713 2.371l7.825-1.617c-.92 6.38-1.384 12.845-1.384 19.306 0 6.353.452 12.729 1.339 19-6.71 6.202-10.408 15.463-9.095 25.186.824 6.1 3.503 11.651 7.658 16.031-5.051 3.186-8.424 8.801-8.424 15.202 0 9.914 8.065 17.979 17.979 17.979 7.765 0 14.376-4.958 16.886-11.867 8.147 19.975 19.976 37.374 34.414 50.898-27.771 14.048-51.221 36.009-67.078 62.868-5.773-4.726-11.345-9.762-16.691-15.108-42.023-42.022-65.166-97.893-65.166-157.321s23.143-115.299 65.164-157.321c42.023-42.022 97.894-65.165 157.322-65.165s115.299 23.143 157.321 65.165c42.021 42.022 65.164 97.893 65.164 157.321s-23.143 115.299-65.164 157.321z"/><path d="m286.253 261.605c1.69-1.863 2.601-4.155 2.771-6.483 3.515 2.707 7.816 4.127 12.159 4.127 2.354 0 4.72-.415 6.974-1.265 2.843-1.071 4.278-4.244 3.207-7.086-1.07-2.843-4.243-4.277-7.086-3.207-2.902 1.093-6.212.575-8.642-1.349-6.252-4.954-14.809-5.66-21.748-1.93-1.358.594-2.619 1.469-3.679 2.638-4.019 4.43-3.686 11.28.744 15.299 4.431 4.02 11.281 3.687 15.3-.744z"/><path d="m177.988 255.093c.164 2.339 1.076 4.642 2.773 6.512 4.019 4.43 10.869 4.764 15.299.745s4.764-10.869.745-15.299c-1.122-1.237-2.469-2.142-3.918-2.735-6.904-3.614-15.359-2.881-21.554 2.027-2.429 1.925-5.738 2.442-8.64 1.349-2.844-1.071-6.016.364-7.086 3.207-1.071 2.842.364 6.015 3.207 7.086 2.254.85 4.619 1.265 6.974 1.265 4.358 0 8.679-1.431 12.2-4.157z"/><path d="m233.461 326.591c6.747 0 13.133-2.563 17.982-7.219 2.191-2.104 2.263-5.585.159-7.776-2.104-2.19-5.585-2.263-7.776-.159-2.791 2.679-6.472 4.154-10.365 4.154-3.887 0-7.564-1.476-10.355-4.154-2.191-2.104-5.673-2.033-7.776.159-2.104 2.191-2.032 5.673.159 7.776 4.849 4.655 11.232 7.219 17.972 7.219z"/></g></svg>