<svg enable-background="new 0 0 512 512" height="512" viewBox="0 0 466.971 466.971" width="512" xmlns="http://www.w3.org/2000/svg"><g fill="#ff01d7" xmlns="http://www.w3.org/2000/svg"><path d="m398.585 68.387c-44.1-44.1-102.733-68.387-165.1-68.387s-121 24.287-165.099 68.387-68.386 102.732-68.386 165.099 24.287 121 68.386 165.1c44.1 44.099 102.733 68.386 165.099 68.386s121-24.287 165.1-68.386c44.1-44.1 68.386-102.733 68.386-165.1s-24.286-120.999-68.386-165.099zm-296.966 344.345c11.924-20.641 28.625-38.252 48.438-51.279 22.501 26.233 51.949 40.625 83.427 40.625 31.446 0 60.874-14.363 83.372-40.548 19.815 13.031 36.52 30.626 48.452 51.235-37.977 28.048-83.733 43.207-131.822 43.207-48.108-.001-93.881-15.171-131.867-43.24zm123.503-216.456 4.172 12.053-95.488-31.353c5.311-12.489 12.77-23.371 22.281-32.34 19.442-18.335 46.206-28.026 77.398-28.026s57.957 9.691 77.398 28.026c20.866 19.678 31.896 48.538 31.896 83.461 0 2.324-.048 4.634-.144 6.928l-110.212-45.631c-2-.827-4.3-.405-5.876 1.079-1.575 1.486-2.133 3.757-1.425 5.803zm-95.104-8.966 7.047 2.314-10.931 14.127c.951-5.707 2.249-11.192 3.884-16.441zm223.761 40.787c0-5.539-.267-10.937-.782-16.193 17.329 6.229 28.608 23.927 26.046 42.895-1.427 10.564-6.882 19.941-15.361 26.402-6.203 4.726-13.482 7.47-21.08 8.048 7.166-18.6 11.177-39.319 11.177-61.152zm-2.436-28.152c-4.621-25.572-15.767-47.143-32.913-63.312-21.521-20.296-50.895-31.023-84.945-31.023s-63.424 10.728-84.945 31.023c-17.144 16.167-28.289 37.735-32.912 63.303-7.268 1.728-13.852 4.992-19.466 9.381 7.123-69.382 65.951-123.788 137.235-123.788 71.244 0 130.045 54.346 137.222 123.673-5.57-4.322-12.087-7.542-19.276-9.257zm-237.369 11.944c-.515 5.261-.783 10.664-.783 16.208 0 21.834 4.011 42.554 11.178 61.155-7.611-.572-14.905-3.315-21.119-8.051-8.479-6.461-13.934-15.838-15.361-26.402-2.564-18.983 8.734-36.695 26.085-42.91zm10.217 16.208c0-1.318.021-2.624.052-3.925l23.914-30.906 88.248 28.976c1.986.651 4.17.123 5.636-1.368 1.466-1.489 1.961-3.682 1.277-5.656l-3.8-10.979 102.224 42.323c-7.342 65.388-53.088 115.91-108.257 115.91-60.264 0-109.294-60.28-109.294-134.375zm109.294 145.375c23.646 0 45.716-8.293 64.335-22.59 3.225 1.509 6.389 3.136 9.493 4.866-20.213 22.835-46.212 35.33-73.829 35.33-27.647 0-53.666-12.521-73.883-35.403 3.097-1.725 6.254-3.348 9.472-4.852 18.634 14.334 40.734 22.649 64.412 22.649zm157.322 17.335c-5.359 5.359-10.947 10.407-16.735 15.144-15.868-26.825-39.326-48.774-67.103-62.839 12.458-11.651 22.984-26.181 30.876-42.767.586.02 1.171.031 1.755.031 11.073-.001 21.792-3.6 30.75-10.426 10.816-8.242 17.775-20.202 19.596-33.679 1.679-12.431-1.312-24.431-7.606-34.245-.791-81.33-67.295-147.496-148.941-147.496-81.717 0-148.266 66.281-148.944 147.708-6.2 9.774-9.134 21.692-7.467 34.033 1.82 13.476 8.779 25.437 19.595 33.679 8.959 6.827 19.675 10.426 30.75 10.426.596 0 1.194-.012 1.792-.033 7.878 16.555 18.379 31.063 30.807 42.704-27.771 14.047-51.22 36.008-67.077 62.868-5.773-4.726-11.345-9.762-16.691-15.108-42.021-42.023-65.164-97.894-65.164-157.321s23.143-115.299 65.165-157.32c42.022-42.023 97.893-65.166 157.32-65.166 59.428 0 115.299 23.143 157.321 65.165 42.022 42.021 65.165 97.893 65.165 157.32s-23.142 115.299-65.164 157.322z"/><circle cx="171.225" cy="251.701" r="10.831"/><circle cx="295.746" cy="251.701" r="10.831"/><path d="m233.481 323.124c9.126 0 17.69-4.871 22.351-12.711 1.552-2.611.694-5.986-1.917-7.538-2.612-1.554-5.987-.693-7.538 1.917-2.729 4.591-7.55 7.332-12.896 7.332-5.34 0-10.158-2.741-12.887-7.332-1.552-2.61-4.925-3.471-7.538-1.917-2.611 1.552-3.469 4.927-1.917 7.538 4.661 7.84 13.222 12.711 22.342 12.711z"/></g></svg>